<svg xmlns="http://www.w3.org/2000/svg" viewBox="0 0 485.87 651.94"><defs><style>.cls-1{fill:#fcc;opacity:0.78;}.cls-2{fill:#ffa32a;}.cls-3{fill:#ff90c0;}.cls-4{fill:#1c221f;}</style></defs><title>hand-with-points</title><g id="Layer_2" data-name="Layer 2"><g id="Layer_1-2" data-name="Layer 1"><path class="cls-1" d="M203.73,627c6.52-29,12.31-113.68,11.59-118.75s-27.52-35.48-42-47.79S135,427.11,124.81,414.08,81.36,377.15,75.57,375s-10.13-5.07-25.34-15.93S6.06,335.16,6.06,335.16s-13.39-9.05-.36-23.53,52.13-15.21,91.23,7.24,55.76,33.3,71.68,29.68,36.21-7.24,28.24-91.95c0,0-2.89-35.48-15.2-64.44S170.79,64,170.79,64s2.17-21.73,21-22.45S215,56.76,215.68,67.62s6.52,68.06,11.58,81.09,13.76,50,15.21,71,25.34,15.93,25.34,8a642.74,642.74,0,0,0-2.17-64.45c-2.9-37.65,2.17-94.85,2.17-94.85s-.72-56.48,18.1-65.89,28.24,10.86,29.69,17.38-1.45,65.89,0,88.33,3.62,17.38,3.62,42.72-1.45,76,8,77.48,11.59-14.48,12.31-51.41,8.69-59.37,9.42-76.75S345.29,22,372.08,21.28s22.44,35.48,22.44,74.58-.72,57.2,0,73.13-10.86,63-5.07,80.37,22.6,7.55,27.52-15.93c6.51-31.14,14.48-38.38,15.93-47.07s2.17-17.37,9.41-41.27c0,0,7.24-41.27,24.62-39.82s19.55,14.48,18.82,29.69-9.41,51.4-9.41,51.4-2.89,29.69-10.14,55.76c-7.54,27.14-19.55,46.34-20.27,73.85s-12.31,71.68-13.76,85.44-11.58,62.27-24.61,85.44c0,0-5.07,31.86-18.83,45.62a149.11,149.11,0,0,1-1.45,47.78c-5.07,26.07.73,71.69.73,71.69Z"/><path class="cls-2" d="M267.08,521.75a57.69,57.69,0,0,1-8.82-.18,77.53,77.53,0,0,1-25.5-6.71,79.87,79.87,0,0,1-15.44-8.53,59.94,59.94,0,0,1-6.7-5.73,47.43,47.43,0,0,1-5.54-6.8l.24-.18a51.44,51.44,0,0,0,5.94,6.31,57.73,57.73,0,0,0,6.91,5.16,78,78,0,0,0,15.47,7.54c2.7,1,5.45,1.82,8.23,2.56l8.33,2.2c5.57,1.47,11.19,2.75,16.9,4.07Z"/><path class="cls-2" d="M355.45,535.94c4.36,0,8.61-.08,12.8-.4,2.1-.15,4.18-.33,6.26-.56a34.63,34.63,0,0,0,6.14-1.16,30.81,30.81,0,0,0,5.79-2.31,24.81,24.81,0,0,0,5.09-3.6,25.58,25.58,0,0,0,6.81-10.57l.29.08a25.7,25.7,0,0,1-6,11.56,27.65,27.65,0,0,1-5.17,4.22,33.69,33.69,0,0,1-6,2.9,37.08,37.08,0,0,1-13,2.44,41.4,41.4,0,0,1-6.59-.59,30.17,30.17,0,0,1-6.37-1.72Z"/><path class="cls-2" d="M236,527.27c4.72,3.25,10.13,4.9,15.62,6a101.71,101.71,0,0,0,16.73,1.82c5.65.21,11.21.15,17,.18a162.15,162.15,0,0,1,17.18,1.16,78.68,78.68,0,0,1,16.83,3.92c2.72,1,5.33,2.16,7.95,3,.66.23,1.32.38,2,.54s1.38.27,2.08.41c1.39.26,2.79.5,4.18.74a129.62,129.62,0,0,0,16.89,1.85,58.39,58.39,0,0,0,8.47-.24,25.6,25.6,0,0,0,8.18-2l.14.27a26.11,26.11,0,0,1-8.24,2.35,57.2,57.2,0,0,1-8.57.55,130.25,130.25,0,0,1-17.09-1.27c-1.42-.2-2.83-.41-4.24-.63-.71-.12-1.4-.22-2.12-.36s-1.46-.3-2.16-.52c-2.82-.84-5.41-2-8.09-2.82a76.16,76.16,0,0,0-16.46-3.38,144.42,144.42,0,0,0-16.91-.57l-8.53.13h-2.16l-2.15-.07c-1.44-.07-2.87-.08-4.31-.21a84.68,84.68,0,0,1-17.06-2.77,46.83,46.83,0,0,1-8.14-3,30.4,30.4,0,0,1-7.15-4.81Z"/><path class="cls-2" d="M230.91,320.17a111.09,111.09,0,0,1,26.15,7.71,112.61,112.61,0,0,1,23.76,13.67,91.93,91.93,0,0,1,19.25,19.64A87.91,87.91,0,0,1,307.22,373l1.5,3.1c.5,1,.9,2.12,1.35,3.17.93,2.11,1.65,4.28,2.43,6.43,5.92,17.32,8.3,35.63,8.34,53.79a230.59,230.59,0,0,1-1.67,27.18,211,211,0,0,1-4.87,26.75l-.29-.07a210.79,210.79,0,0,0,4.26-26.78,228.76,228.76,0,0,0,1.07-27.07c-.34-18-3-36.1-9.1-53-.81-2.09-1.56-4.21-2.51-6.23-.46-1-.87-2.06-1.37-3.05l-1.53-3a83.91,83.91,0,0,0-7.16-11.28A88.25,88.25,0,0,0,289,352.83a95.7,95.7,0,0,0-10-8.9,132.84,132.84,0,0,0-48.13-23.47Z"/><path class="cls-2" d="M168.56,349.86a24.62,24.62,0,0,1,5.25-2.28,39.21,39.21,0,0,1,5.54-1.34,51.23,51.23,0,0,1,11.34-.32c.94,0,1.88.13,2.82.2s1.88.14,2.82.27l2.8.34,2.78.46c1.86.29,3.67.77,5.5,1.17s3.61,1,5.41,1.5l-.07.29c-1.85-.28-3.67-.63-5.51-.88s-3.68-.5-5.53-.59l-2.76-.24-2.76-.11c-.92-.05-1.84-.06-2.77,0s-1.84,0-2.75,0c-3.69.09-7.31.68-10.95.9s-7.29.58-11.05.92Z"/><path class="cls-2" d="M186.56,340.09a12.2,12.2,0,0,1,2-4.18,18,18,0,0,1,1.42-1.84c.5-.58,1.06-1.11,1.6-1.66a29,29,0,0,1,7.73-4.81,60.38,60.38,0,0,1,8.39-3.26c1.43-.42,2.88-.76,4.32-1.14s2.91-.59,4.37-.86l.07.29c-1.4.5-2.79,1-4.18,1.45s-2.73,1.08-4.07,1.66a60.78,60.78,0,0,0-7.75,4c-2.48,1.5-4.66,3.36-7,5a63.87,63.87,0,0,0-6.65,5.51Z"/><path class="cls-2" d="M196,322.41a20.83,20.83,0,0,1,2.93-6.81,32.1,32.1,0,0,1,4.82-5.53,69.76,69.76,0,0,1,5.32-5c1.86-1.57,3.8-3.05,5.79-4.42l.19.23c-1.68,1.74-3.38,3.43-4.93,5.26s-3.1,3.63-4.56,5.5-2.64,4-4.22,5.74a48.52,48.52,0,0,1-5.08,5.18Z"/><path class="cls-3" d="M280.2,276.81a118.81,118.81,0,0,0,14.32,14.58l3.87,3.34,4,3.16c2.63,2.17,5.47,4.08,8.22,6.08A245,245,0,0,0,346,324.38l9.34,4.15c.78.34,1.55.7,2.33,1l2.39.91,4.77,1.82c6.31,2.57,12.8,4.61,19.25,6.8l2.42.83,1.21.42,1.22.35,4.91,1.41c3.28.95,6.56,1.86,9.82,2.85l1.23.36,1.24.3,2.49.6,5,1.19c3.31.84,6.63,1.63,9.94,2.5l0,.2c-6.73-1.19-13.48-2.37-20.17-3.8-3.33-.8-6.63-1.69-9.95-2.54l-5-1.28-1.24-.32-1.23-.39-2.45-.77-9.77-3.2-2.44-.82-2.38-1-4.78-1.9-4.77-1.92-2.38-1c-.79-.34-1.56-.72-2.34-1.08l-9.31-4.35a245.87,245.87,0,0,1-35.24-21c-2.73-2.06-5.53-4-8.14-6.26l-4-3.26-3.82-3.42A118.16,118.16,0,0,1,280,276.93Z"/><path class="cls-3" d="M225.82,310.8a119.56,119.56,0,0,1,24.69,1.69,169.51,169.51,0,0,1,24.11,5.78,193.66,193.66,0,0,1,23.11,9A227.56,227.56,0,0,1,319.6,339c7.09,4.29,13.87,9.06,20.51,14A243.88,243.88,0,0,1,359,369.18a274.68,274.68,0,0,1,32.7,37.24l-.15.12a370.24,370.24,0,0,0-33.92-35.89c-1.51-1.39-3-2.81-4.54-4.17l-4.68-4-2.33-2-2.39-1.94-4.79-3.89c-6.51-5-13.17-9.85-20.14-14.21a227.81,227.81,0,0,0-21.58-11.94,195.92,195.92,0,0,0-22.87-9.24,168.06,168.06,0,0,0-23.91-6.14A119.17,119.17,0,0,0,225.82,311Z"/><path class="cls-3" d="M447,300.8a5.55,5.55,0,0,0-.36-2.31l-.2-.55-.27-.53a5.81,5.81,0,0,0-.6-1,16.3,16.3,0,0,0-3.19-3.45,36.1,36.1,0,0,0-8.14-4.84c-1.49-.58-2.92-1.26-4.46-1.71s-3-1.08-4.5-1.59L423,284l-1.12-.44-1.14-.4q-2.26-.8-4.51-1.81l0-.19a48.82,48.82,0,0,1,9.59,1.78,48.11,48.11,0,0,1,9,3.76,37.34,37.34,0,0,1,8.12,5.53,17.43,17.43,0,0,1,3,3.9,7.71,7.71,0,0,1,1.1,4.75Z"/><path class="cls-3" d="M197,258.77a22.44,22.44,0,0,1,2.3-3.93,40.8,40.8,0,0,1,2.92-3.53,18.45,18.45,0,0,1,3.39-3.1,12.71,12.71,0,0,1,4.25-1.83l.11.17a15.16,15.16,0,0,1-1.54,1.72c-.51.55-1.09,1-1.62,1.53-1.08,1-2.34,1.74-3.49,2.68a36.77,36.77,0,0,0-3.25,3,26.59,26.59,0,0,0-2.89,3.38Z"/><path class="cls-3" d="M171.68,121.21a7.11,7.11,0,0,1,2.49-4.32,18.16,18.16,0,0,1,4.23-2.77c.76-.35,1.53-.7,2.31-1a12.08,12.08,0,0,1,2.42-.67,15.1,15.1,0,0,1,5,0l0,.2a15.12,15.12,0,0,1-2.3,1c-.77.27-1.52.56-2.28.78-1.51.51-3.08.73-4.59,1.23a17.17,17.17,0,0,0-4.21,2.07,6.82,6.82,0,0,0-2.92,3.56Z"/><path class="cls-3" d="M179.09,184.76a17.69,17.69,0,0,1,2.77-4.72,24.59,24.59,0,0,1,4-3.87,16.81,16.81,0,0,1,4.79-2.84,14.07,14.07,0,0,1,5.5-.82l0,.19a22.55,22.55,0,0,1-2.41,1.28c-.39.22-.79.4-1.18.6a12.81,12.81,0,0,0-1.17.59c-.39.2-.78.39-1.17.56l-1.17.56a20.29,20.29,0,0,0-2.32,1.19,23.35,23.35,0,0,0-4.13,3.23,19.28,19.28,0,0,0-3.33,4.13Z"/><path class="cls-3" d="M265.12,156.29a6.83,6.83,0,0,1,1.62-2,13.58,13.58,0,0,1,2.08-1.53,20.3,20.3,0,0,1,4.78-2c.82-.27,1.67-.41,2.51-.64a14.61,14.61,0,0,1,2.56-.25,21.73,21.73,0,0,1,2.56.22,15.05,15.05,0,0,1,2.52.65v.2a15.62,15.62,0,0,1-2.5.55c-.82.16-1.64.28-2.45.37-1.6.27-3.24.18-4.84.46a18.89,18.89,0,0,0-4.68,1.29,10,10,0,0,0-4,2.73Z"/><path class="cls-3" d="M393.82,181.07a2.36,2.36,0,0,1-1.22-.4c-.36-.2-.71-.43-1.06-.65l-2-1.38c-1.36-.91-2.73-1.8-4.13-2.61a49.09,49.09,0,0,0-8.77-4.14,65.82,65.82,0,0,0-9.34-2.26c-3.16-.58-6.36-.92-9.66-1.27v-.2a30.24,30.24,0,0,1,10-.5,28.67,28.67,0,0,1,4.92,1q2.4.75,4.71,1.72a50.49,50.49,0,0,1,8.72,4.78c1.36.95,2.67,1.95,4,3l1.92,1.53c.32.25.64.5,1,.72a2.26,2.26,0,0,0,1,.47Z"/><path class="cls-3" d="M357.62,99.38c2.46.43,4.93.82,7.41,1.13s5,.61,7.42.78,5,.1,7.4.24a65.19,65.19,0,0,0,7.4,0l.06.19c-.57.3-1.16.54-1.77.8s-1.23.35-1.87.51a24.5,24.5,0,0,1-3.81.48,36.23,36.23,0,0,1-7.58-.65c-2.5-.38-5-.84-7.43-1.39s-4.88-1.17-7.28-1.92Z"/><path class="cls-3" d="M275.75,78.38a69.48,69.48,0,0,1,8.06-1.93,78.76,78.76,0,0,1,8.27-1,38.52,38.52,0,0,1,8.38.17,23.62,23.62,0,0,1,7.93,2.76l-.07.19c-2.77-.38-5.42-.75-8.11-1s-5.36-.53-8.09-.55a79.79,79.79,0,0,0-8.17.39q-4.09.36-8.15,1.13Z"/><path class="cls-3" d="M477.6,181.08a42.14,42.14,0,0,1-6.74-.18c-2.24-.24-4.46-.6-6.68-1a36.77,36.77,0,0,1-6.53-1.74,26.83,26.83,0,0,1-6-3.25l.08-.18a29.57,29.57,0,0,1,3.32.69c1.09.24,2.14.58,3.21.85,2.13.58,4.17,1.44,6.28,2.08s4.27,1.17,6.44,1.6a48.78,48.78,0,0,0,6.58,1Z"/><path class="cls-3" d="M467.42,237.72a32.26,32.26,0,0,1-6.51.44,54.76,54.76,0,0,1-6.51-.64A30.28,30.28,0,0,1,448,236a22.71,22.71,0,0,1-5.75-3.2l.08-.18a32.37,32.37,0,0,1,3.2.68c1.05.22,2.06.56,3.09.8s2,.6,3,.92,2,.64,3.05.94a52.42,52.42,0,0,0,6.26,1.21,37,37,0,0,0,6.4.37Z"/><path class="cls-3" d="M387.37,237.82c-1.8,2.69-4.67,4.37-7.53,5.72a43.6,43.6,0,0,1-9.12,2.83c-.77.19-1.56.29-2.35.43s-1.57.28-2.35.4a47.35,47.35,0,0,1-4.76.32c-1.59-.05-3.18-.06-4.75-.23s-3.15-.42-4.71-.73v-.2q2.37-.35,4.71-.48c1.56-.12,3.11-.27,4.66-.36.78,0,1.55-.14,2.32-.18l2.32-.12c1.54-.12,3.1-.21,4.63-.43a42.28,42.28,0,0,0,9-2.17c2.86-1.06,5.79-2.47,7.73-4.9Z"/><path class="cls-3" d="M245.88,229.6a36,36,0,0,1-3.84,3.56c-1.37,1.08-2.8,2.1-4.27,3.07a24.35,24.35,0,0,1-4.58,2.6A17.34,17.34,0,0,1,228,240l-.07-.19a20.28,20.28,0,0,1,2.17-1.52c.73-.48,1.49-.87,2.22-1.31,1.49-.84,3.1-1.42,4.63-2.18s3-1.6,4.49-2.5a42.77,42.77,0,0,0,4.28-2.89Z"/><path class="cls-3" d="M323.78,224.76a15,15,0,0,1-3.62,4.88,25.11,25.11,0,0,1-5.05,3.49,21.25,21.25,0,0,1-5.69,2.28,28.76,28.76,0,0,1-3,.4,21.15,21.15,0,0,1-3.08-.11l0-.2a23.32,23.32,0,0,1,2.83-1.07c.93-.36,1.86-.64,2.79-1s1.86-.56,2.77-.87l1.4-.41,1.36-.52a23.62,23.62,0,0,0,5.09-2.81,15.17,15.17,0,0,0,4.07-4.19Z"/><circle class="cls-4" cx="350.72" cy="369.91" r="4.71"/><circle class="cls-4" cx="310.89" cy="322.13" r="4.71"/><circle class="cls-4" cx="418.78" cy="374.98" r="4.71"/><circle class="cls-4" cx="345.65" cy="450.28" r="4.71"/><circle class="cls-4" cx="308.72" cy="453.18" r="4.71"/><circle class="cls-4" cx="405.75" cy="416.98" r="4.71"/><circle class="cls-4" cx="381.85" cy="488.66" r="4.71"/><circle class="cls-4" cx="65.44" cy="348.19" r="4.71"/><circle class="cls-4" cx="235.59" cy="311.26" r="4.71"/><circle class="cls-4" cx="292.07" cy="27.43" r="4.71"/><circle class="cls-4" cx="320.31" cy="239.58" r="4.71"/></g></g></svg>